<svg width="37" height="42" viewBox="0 0 37 42" fill="none" xmlns="http://www.w3.org/2000/svg">
    <path d="M6.6593 8.33333C6.6593 7.18275 7.65314 6.25 8.87907 6.25H26.6372C27.8632 6.25 28.857 7.18275 28.857 8.33333V12.5C28.857 13.6506 27.8632 14.5833 26.6372 14.5833H8.87907C7.65314 14.5833 6.6593 13.6506 6.6593 12.5V8.33333ZM9.98896 11.4583H25.5273V9.375H9.98896V11.4583ZM0 5.20833C0 2.33185 2.48456 0 5.54942 0H31.0768C34.1416 0 36.6262 2.33185 36.6262 5.20833V34.8958C36.6262 35.7588 35.8808 36.4583 34.9613 36.4583H3.32965C3.32965 37.609 4.32349 38.5417 5.54942 38.5417H34.9613C35.8808 38.5417 36.6262 39.2413 36.6262 40.1042C36.6262 40.9671 35.8808 41.6667 34.9613 41.6667H5.54942C2.48456 41.6667 0 39.3348 0 36.4583V5.20833ZM3.32965 33.3333H33.2965V5.20833C33.2965 4.05775 32.3027 3.125 31.0768 3.125H5.54942C4.32349 3.125 3.32965 4.05775 3.32965 5.20833V33.3333Z" fill="#212121"/>
    </svg>
    