<svg width="34" height="34" viewBox="0 0 34 34" fill="none" xmlns="http://www.w3.org/2000/svg">
    <path d="M17.0017 0.333336C26.2063 0.333336 33.6683 7.79525 33.6683 17C33.6683 26.2047 26.2063 33.6667 17.0017 33.6667C7.79688 33.6667 0.334961 26.2047 0.334961 17C0.334961 7.79525 7.79688 0.333336 17.0017 0.333336ZM18.3022 9.44829L18.162 9.32725C17.727 9.0045 17.13 9.00052 16.691 9.3153L16.5343 9.44829L16.4133 9.58847C16.0907 10.0235 16.0867 10.6205 16.4015 11.0595L16.5343 11.2161L21.0672 15.7488H9.91711L9.74749 15.7602C9.19284 15.8355 8.75378 16.2745 8.67853 16.8292L8.66711 16.9988L8.67853 17.1685C8.75378 17.7232 9.19284 18.1622 9.74749 18.2373L9.91711 18.2488H21.0672L16.5333 22.7828L16.4123 22.923C16.0492 23.4123 16.0893 24.1067 16.533 24.5505C16.9768 24.9945 17.6712 25.0348 18.1607 24.672L18.3008 24.551L24.97 17.8843L25.0912 17.744C25.414 17.309 25.418 16.712 25.1032 16.273L24.9702 16.1163L18.3022 9.44829Z" fill="#212121"/>
    </svg>